<mxfile host="65bd71144e">
    <diagram id="eVnzbndmDhpTWL6od971" name="ページ1">
        <mxGraphModel dx="1188" dy="899" grid="1" gridSize="10" guides="1" tooltips="1" connect="1" arrows="1" fold="1" page="1" pageScale="1" pageWidth="827" pageHeight="1169" math="0" shadow="0">
            <root>
                <mxCell id="0"/>
                <mxCell id="1" parent="0"/>
                <mxCell id="14" value="" style="group;fontFamily=Lucida Console;fontSize=14;" vertex="1" connectable="0" parent="1">
                    <mxGeometry x="210" y="150" width="360" height="210" as="geometry"/>
                </mxCell>
                <mxCell id="4" style="edgeStyle=none;html=1;exitX=0;exitY=0.5;exitDx=0;exitDy=0;startArrow=open;startFill=0;endArrow=none;endFill=0;fontSize=14;" parent="14" source="2" edge="1">
                    <mxGeometry relative="1" as="geometry">
                        <mxPoint x="73.46938775510205" y="133.63636363636365" as="targetPoint"/>
                    </mxGeometry>
                </mxCell>
                <mxCell id="5" style="edgeStyle=none;html=1;exitX=1;exitY=0.5;exitDx=0;exitDy=0;endArrow=open;endFill=0;fontSize=14;" parent="14" source="2" edge="1">
                    <mxGeometry relative="1" as="geometry">
                        <mxPoint x="293.8775510204082" y="133.63636363636365" as="targetPoint"/>
                    </mxGeometry>
                </mxCell>
                <mxCell id="2" value="" style="rounded=0;whiteSpace=wrap;html=1;fontSize=14;" parent="14" vertex="1">
                    <mxGeometry x="128.57142857142856" y="57.27272727272728" width="110.20408163265306" height="152.72727272727275" as="geometry"/>
                </mxCell>
                <mxCell id="6" value="" style="endArrow=none;html=1;fontSize=14;" parent="14" edge="1">
                    <mxGeometry width="50" height="50" relative="1" as="geometry">
                        <mxPoint x="84.48979591836735" y="143.18181818181822" as="sourcePoint"/>
                        <mxPoint x="102.85714285714286" y="124.09090909090911" as="targetPoint"/>
                    </mxGeometry>
                </mxCell>
                <mxCell id="8" value="4" style="text;html=1;align=center;verticalAlign=middle;resizable=0;points=[];autosize=1;strokeColor=none;fillColor=none;fontFamily=Courier New;fontSize=14;" parent="14" vertex="1">
                    <mxGeometry x="77.34088052589223" y="132.62655502392346" width="30" height="30" as="geometry"/>
                </mxCell>
                <mxCell id="9" value="num" style="text;html=1;align=center;verticalAlign=middle;resizable=0;points=[];autosize=1;strokeColor=none;fillColor=none;fontFamily=Courier New;fontSize=14;" parent="14" vertex="1">
                    <mxGeometry x="24.170137350465218" y="117.05842105263159" width="50" height="30" as="geometry"/>
                </mxCell>
                <mxCell id="10" value="" style="endArrow=none;html=1;fontSize=14;" parent="14" edge="1">
                    <mxGeometry width="50" height="50" relative="1" as="geometry">
                        <mxPoint x="257.1428571428571" y="143.18181818181822" as="sourcePoint"/>
                        <mxPoint x="275.51020408163265" y="124.09090909090911" as="targetPoint"/>
                    </mxGeometry>
                </mxCell>
                <mxCell id="11" value="7" style="text;html=1;align=center;verticalAlign=middle;resizable=0;points=[];autosize=1;strokeColor=none;fillColor=none;fontFamily=Courier New;fontSize=14;" parent="14" vertex="1">
                    <mxGeometry x="255.20439810837937" y="132.62655502392346" width="30" height="30" as="geometry"/>
                </mxCell>
                <mxCell id="12" value="hex" style="text;html=1;align=center;verticalAlign=middle;resizable=0;points=[];autosize=1;strokeColor=none;fillColor=none;fontFamily=Courier New;fontSize=14;" parent="14" vertex="1">
                    <mxGeometry x="287.10167912978216" y="117.05842105263159" width="50" height="30" as="geometry"/>
                </mxCell>
                <mxCell id="13" value="sseg_decoder" style="text;html=1;align=center;verticalAlign=middle;resizable=0;points=[];autosize=1;strokeColor=none;fillColor=none;fontFamily=Courier New;fontSize=14;" parent="14" vertex="1">
                    <mxGeometry x="119.87060663875651" y="24.11684210526316" width="120" height="30" as="geometry"/>
                </mxCell>
            </root>
        </mxGraphModel>
    </diagram>
</mxfile>